# xmcd CD database file
#
# Track frame offsets:
#	150
#	17801
#	32275
#	44499
#	59347
#	80420
#	91442
#	110040
#	130888
#	149663
#	171181
#	187754
#	204404
#	219852
#	239800
#	259000
#	279145
#	293616
#	314312
#	327425
#
# Disc length: 4543 seconds
#
# Revision: 0
# Processed by: cddbd v1.5.1PL2 Copyright (c) Steve Scherf et al.
# Submitted via: CDex 1.51
#
DISCID=2211bd14
DTITLE=Al and Brenda Hooper - I Must Be A Baby Boomer
DYEAR=1900
DGENRE=Country
TTITLE0=Meet the Latest Member
TTITLE1=Baby You Ain't Done Much Better
TTITLE2=Here I Go Making Believe Again 
TTITLE3=I Must Be a Baby Boomer
TTITLE4=Danny Boy
TTITLE5=Five Foot Two
TTITLE6=Old Flames (Can't Hold a Candle to You)
TTITLE7=Working Man I Am
TTITLE8=I Wouldn't Take a Million Dollars (For a Single Maple Leaf)
TTITLE9=Mr. Bojangles
TTITLE10=Look At Us
TTITLE11=Song For Mira
TTITLE12=Always Be the Best of Friends
TTITLE13=Daisy A Day
TTITLE14=Old Dogs and Children
TTITLE15=Farmer's Song
TTITLE16=I Can't Stop Loving You
TTITLE17=Let Me Call You Sweetheart
TTITLE18=Till We Meet Again
TTITLE19=Beautiful New Brunswick Song
EXTD=
EXTT0=
EXTT1=
EXTT2=
EXTT3=
EXTT4=
EXTT5=
EXTT6=
EXTT7=
EXTT8=
EXTT9=
EXTT10=
EXTT11=
EXTT12=
EXTT13=
EXTT14=
EXTT15=
EXTT16=
EXTT17=
EXTT18=
EXTT19=
PLAYORDER=
